<svg width="17" height="17" viewBox="0 0 17 17" fill="none" xmlns="http://www.w3.org/2000/svg">
<path d="M15.4062 14.6551L11.3942 10.6431C12.3583 9.48565 12.8391 8.00108 12.7365 6.49821C12.6339 4.99534 11.9559 3.58988 10.8434 2.5742C9.73098 1.55851 8.26979 1.01081 6.76381 1.04503C5.25783 1.07925 3.82302 1.69275 2.75785 2.75792C1.69269 3.82308 1.07919 5.25789 1.04497 6.76387C1.01075 8.26985 1.55845 9.73104 2.57413 10.8435C3.58982 11.9559 4.99528 12.634 6.49815 12.7366C8.00102 12.8391 9.48559 12.3584 10.643 11.3943L14.655 15.4063L15.4062 14.6551ZM2.12495 6.90627C2.12495 5.96062 2.40537 5.03622 2.93074 4.24995C3.45611 3.46367 4.20284 2.85085 5.0765 2.48897C5.95016 2.12709 6.91151 2.0324 7.83898 2.21689C8.76645 2.40137 9.61839 2.85674 10.2871 3.52541C10.9557 4.19408 11.4111 5.04602 11.5956 5.97349C11.7801 6.90096 11.6854 7.86231 11.3235 8.73597C10.9616 9.60963 10.3488 10.3564 9.56252 10.8817C8.77625 11.4071 7.85185 11.6875 6.9062 11.6875C5.63857 11.6861 4.42326 11.1819 3.5269 10.2856C2.63055 9.38921 2.12636 8.1739 2.12495 6.90627Z" fill="black"/>
</svg>
